<svg xmlns="http://www.w3.org/2000/svg" width="24" height="24" viewBox="0 0 24 24" fill="none">
  <circle cx="12" cy="12" r="4" fill="black"/>
  <polygon points="12,2.5 9.1,7.5 14.9,7.5" fill="black" transform="rotate(0, 12, 12)"/>
  <polygon points="12,2.5 9.1,7.5 14.9,7.5" fill="black" transform="rotate(45, 12, 12)"/>
  <polygon points="12,2.5 9.1,7.5 14.9,7.5" fill="black" transform="rotate(90, 12, 12)"/>
  <polygon points="12,2.5 9.1,7.5 14.9,7.5" fill="black" transform="rotate(135, 12, 12)"/>
  <polygon points="12,2.5 9.1,7.5 14.9,7.5" fill="black" transform="rotate(180, 12, 12)"/>
  <polygon points="12,2.5 9.1,7.5 14.9,7.5" fill="black" transform="rotate(225, 12, 12)"/>
  <polygon points="12,2.5 9.1,7.5 14.9,7.5" fill="black" transform="rotate(270, 12, 12)"/>
  <polygon points="12,2.5 9.1,7.5 14.9,7.5" fill="black" transform="rotate(315, 12, 12)"/>
</svg>
